<svg width="20" height="20" viewBox="0 0 20 20" fill="none" xmlns="http://www.w3.org/2000/svg">
<path fill-rule="evenodd" clip-rule="evenodd" d="M3.33301 10C3.33301 9.53978 3.7061 9.16669 4.16634 9.16669H15.833C16.2932 9.16669 16.6663 9.53978 16.6663 10C16.6663 10.4603 16.2932 10.8334 15.833 10.8334H4.16634C3.7061 10.8334 3.33301 10.4603 3.33301 10Z" fill="#C22222"/>
<path fill-rule="evenodd" clip-rule="evenodd" d="M9.41107 3.57739C9.73651 3.25195 10.2641 3.25195 10.5896 3.57739L16.4229 9.41072C16.7484 9.73616 16.7484 10.2638 16.4229 10.5892L10.5896 16.4226C10.2641 16.748 9.73651 16.748 9.41107 16.4226C9.08563 16.0971 9.08563 15.5695 9.41107 15.2441L14.6551 9.99998L9.41107 4.7559C9.08563 4.43047 9.08563 3.90283 9.41107 3.57739Z" fill="#C22222"/>
</svg>
