<svg width="24" height="23" viewBox="0 0 24 23" fill="none" xmlns="http://www.w3.org/2000/svg">
<path d="M15.8022 1.06592H8.19717C5.49967 1.06592 4.90384 2.40925 4.55717 4.05592L3.33301 9.91677H20.6663L19.4422 4.05592C19.0955 2.40925 18.4997 1.06592 15.8022 1.06592Z" stroke="#0B7DC3" stroke-width="1.625" stroke-linecap="round" stroke-linejoin="round"/>
<path d="M22.8225 19.4717C22.9416 20.7392 21.9233 21.8334 20.6233 21.8334H18.5866C17.4166 21.8334 17.2541 21.335 17.0483 20.7175L16.8316 20.0675C16.5283 19.1792 16.3333 18.5834 14.7733 18.5834H9.22662C7.66662 18.5834 7.43913 19.255 7.16829 20.0675L6.95163 20.7175C6.74579 21.335 6.58329 21.8334 5.41329 21.8334H3.37663C2.07663 21.8334 1.05829 20.7392 1.17746 19.4717L1.78413 12.8742C1.93579 11.2492 2.24996 9.91669 5.08829 9.91669H18.9116C21.75 9.91669 22.0641 11.2492 22.2158 12.8742L22.8225 19.4717Z" stroke="#0B7DC3" stroke-width="1.625" stroke-linecap="round" stroke-linejoin="round"/>
<path d="M3.33333 6.66669H2.25" stroke="#0B7DC3" stroke-width="1.625" stroke-linecap="round" stroke-linejoin="round"/>
<path d="M21.7503 6.66669H20.667" stroke="#0B7DC3" stroke-width="1.625" stroke-linecap="round" stroke-linejoin="round"/>
<path d="M12 1.25V3.41667" stroke="#0B7DC3" stroke-width="1.625" stroke-linecap="round" stroke-linejoin="round"/>
<path d="M10.375 3.41669H13.625" stroke="#0B7DC3" stroke-width="1.625" stroke-linecap="round" stroke-linejoin="round"/>
<path d="M5.5 14.25H8.75" stroke="#0B7DC3" stroke-width="1.625" stroke-linecap="round" stroke-linejoin="round"/>
<path d="M15.25 14.25H18.5" stroke="#0B7DC3" stroke-width="1.625" stroke-linecap="round" stroke-linejoin="round"/>
</svg>
