<svg width="22" height="24" viewBox="0 0 22 24" fill="none" xmlns="http://www.w3.org/2000/svg">
<path d="M9.3643 1.41643L3.9585 3.45309C2.71267 3.91893 1.69434 5.39226 1.69434 6.71393V14.763C1.69434 16.0414 2.53934 17.7205 3.5685 18.4897L8.22684 21.9672C9.7543 23.1155 12.2676 23.1155 13.7951 21.9672L18.4535 18.4897C19.4826 17.7205 20.3276 16.0414 20.3276 14.763V6.71393C20.3276 5.38143 19.3093 3.90809 18.0635 3.44226L12.6576 1.41643C11.7368 1.08059 10.2635 1.08059 9.3643 1.41643Z" stroke="#0B7DC3" stroke-width="1.625" stroke-linecap="round" stroke-linejoin="round"/>
<path d="M10.9997 12.5417C12.1963 12.5417 13.1663 11.5717 13.1663 10.375C13.1663 9.17842 12.1963 8.20837 10.9997 8.20837C9.80302 8.20837 8.83301 9.17842 8.83301 10.375C8.83301 11.5717 9.80302 12.5417 10.9997 12.5417Z" stroke="#0B7DC3" stroke-width="1.625" stroke-miterlimit="10" stroke-linecap="round" stroke-linejoin="round"/>
<path d="M11 12.5416V15.7916" stroke="#0B7DC3" stroke-width="1.625" stroke-miterlimit="10" stroke-linecap="round" stroke-linejoin="round"/>
</svg>
