<svg width="41" height="40" viewBox="0 0 41 40" fill="none" xmlns="http://www.w3.org/2000/svg">
<rect x="0.5" width="40" height="40" rx="20" fill="#C22222" fill-opacity="0.12"/>
<path d="M29.4099 19.12C29.4099 24.01 25.8599 28.59 21.0099 29.93C20.6799 30.02 20.3198 30.02 19.9898 29.93C15.1398 28.59 11.5898 24.01 11.5898 19.12V14.73C11.5898 13.91 12.2099 12.98 12.9799 12.67L18.5498 10.3901C19.7998 9.88007 21.2098 9.88007 22.4598 10.3901L28.0298 12.67C28.7898 12.98 29.4199 13.91 29.4199 14.73L29.4099 19.12Z" stroke="#C22222" stroke-width="1.5" stroke-linecap="round" stroke-linejoin="round"/>
<path d="M20.5 20.5C21.6046 20.5 22.5 19.6046 22.5 18.5C22.5 17.3954 21.6046 16.5 20.5 16.5C19.3954 16.5 18.5 17.3954 18.5 18.5C18.5 19.6046 19.3954 20.5 20.5 20.5Z" stroke="#C22222" stroke-width="1.5" stroke-miterlimit="10" stroke-linecap="round" stroke-linejoin="round"/>
<path d="M20.5 20.5V23.5" stroke="#C22222" stroke-width="1.5" stroke-miterlimit="10" stroke-linecap="round" stroke-linejoin="round"/>
</svg>
