<svg width="40" height="40" viewBox="0 0 40 40" fill="none" xmlns="http://www.w3.org/2000/svg">
<rect width="40" height="40" rx="20" fill="#C22222" fill-opacity="0.12"/>
<path d="M11.9889 22.6604L10.4689 21.1404C9.84891 20.5204 9.84891 19.5004 10.4689 18.8804L11.9889 17.3604C12.2489 17.1004 12.4589 16.5904 12.4589 16.2304V14.0804C12.4589 13.2004 13.1789 12.4804 14.0589 12.4804H16.2089C16.5689 12.4804 17.0789 12.2704 17.3389 12.0104L18.8589 10.4904C19.4789 9.87039 20.4989 9.87039 21.1189 10.4904L22.6389 12.0104C22.8989 12.2704 23.4089 12.4804 23.7689 12.4804H25.9189C26.7989 12.4804 27.5189 13.2004 27.5189 14.0804V16.2304C27.5189 16.5904 27.7289 17.1004 27.9889 17.3604L29.5089 18.8804C30.1289 19.5004 30.1289 20.5204 29.5089 21.1404L27.9889 22.6604C27.7289 22.9204 27.5189 23.4304 27.5189 23.7904V25.9403C27.5189 26.8203 26.7989 27.5404 25.9189 27.5404H23.7689C23.4089 27.5404 22.8989 27.7504 22.6389 28.0104L21.1189 29.5304C20.4989 30.1504 19.4789 30.1504 18.8589 29.5304L17.3389 28.0104C17.0789 27.7504 16.5689 27.5404 16.2089 27.5404H14.0589C13.1789 27.5404 12.4589 26.8203 12.4589 25.9403V23.7904C12.4589 23.4204 12.2489 22.9104 11.9889 22.6604Z" stroke="#C22222" stroke-width="1.5" stroke-linecap="round" stroke-linejoin="round"/>
<path d="M17 23L23 17" stroke="#C22222" stroke-width="1.5" stroke-linecap="round" stroke-linejoin="round"/>
<path d="M22.4945 22.5H22.5035" stroke="#C22222" stroke-width="2" stroke-linecap="round" stroke-linejoin="round"/>
<path d="M17.4945 17.5H17.5035" stroke="#C22222" stroke-width="2" stroke-linecap="round" stroke-linejoin="round"/>
</svg>
