<svg width="41" height="40" viewBox="0 0 41 40" fill="none" xmlns="http://www.w3.org/2000/svg">
<rect x="0.5" width="40" height="40" rx="20" fill="#C22222" fill-opacity="0.12"/>
<path d="M28.2897 22.9301C26.2297 24.9801 23.2797 25.6101 20.6897 24.8001L15.9797 29.5001C15.6397 29.8501 14.9697 30.0601 14.4897 29.9901L12.3097 29.6901C11.5897 29.5901 10.9197 28.9101 10.8097 28.1901L10.5097 26.0101C10.4397 25.5301 10.6697 24.8601 10.9997 24.5201L15.6997 19.8201C14.8997 17.2201 15.5197 14.2701 17.5797 12.2201C20.5297 9.27007 25.3197 9.27007 28.2797 12.2201C31.2397 15.1701 31.2397 19.9801 28.2897 22.9301Z" stroke="#C22222" stroke-width="1.5" stroke-miterlimit="10" stroke-linecap="round" stroke-linejoin="round"/>
<path d="M15.3896 25.49L17.6896 27.79" stroke="#C22222" stroke-width="1.5" stroke-miterlimit="10" stroke-linecap="round" stroke-linejoin="round"/>
<path d="M23 19C23.8284 19 24.5 18.3284 24.5 17.5C24.5 16.6716 23.8284 16 23 16C22.1716 16 21.5 16.6716 21.5 17.5C21.5 18.3284 22.1716 19 23 19Z" stroke="#C22222" stroke-width="1.5" stroke-linecap="round" stroke-linejoin="round"/>
</svg>
