<svg width="33" height="33" viewBox="0 0 33 33" fill="none" xmlns="http://www.w3.org/2000/svg">
<g clip-path="url(#clip0_384_1177)">
<path d="M7.25175 14.4375C8.67948 14.4375 10.0752 14.8609 11.2623 15.6541C12.4494 16.4473 13.3746 17.5747 13.921 18.8938C14.4674 20.2128 14.6103 21.6643 14.3318 23.0646C14.0533 24.4649 13.3657 25.7511 12.3562 26.7607C11.3466 27.7702 10.0604 28.4578 8.66006 28.7363C7.25976 29.0148 5.80831 28.8719 4.48925 28.3255C3.1702 27.7791 2.04279 26.8539 1.24958 25.6668C0.456372 24.4797 0.033 23.084 0.033 21.6562L0 20.625C0 16.7959 1.52109 13.1237 4.22865 10.4161C6.9362 7.70859 10.6084 6.1875 14.4375 6.1875V10.3125C13.0826 10.3089 11.7405 10.5738 10.4887 11.0921C9.2369 11.6104 8.10026 12.3717 7.1445 13.332C6.77297 13.7027 6.43029 14.1012 6.11944 14.5241C6.48931 14.465 6.86606 14.4354 7.24969 14.4354L7.25175 14.4375ZM25.8142 14.4375C27.242 14.4375 28.6377 14.8609 29.8248 15.6541C31.0119 16.4473 31.9371 17.5747 32.4835 18.8938C33.0299 20.2128 33.1728 21.6643 32.8943 23.0646C32.6158 24.4649 31.9282 25.7511 30.9187 26.7607C29.9091 27.7702 28.6229 28.4578 27.2226 28.7363C25.8223 29.0148 24.3708 28.8719 23.0518 28.3255C21.7327 27.7791 20.6053 26.8539 19.8121 25.6668C19.0189 24.4797 18.5955 23.084 18.5955 21.6562L18.5625 20.625C18.5625 16.7959 20.0836 13.1237 22.7911 10.4161C25.4987 7.70859 29.1709 6.1875 33 6.1875V10.3125C31.6451 10.3089 30.303 10.5738 29.0512 11.0921C27.7994 11.6104 26.6628 12.3717 25.707 13.332C25.3355 13.7027 24.9928 14.1012 24.6819 14.5241C25.0518 14.465 25.4292 14.4375 25.8142 14.4375Z" fill="#C22222"/>
</g>
<defs>
<clipPath id="clip0_384_1177">
<rect width="33" height="33" fill="white"/>
</clipPath>
</defs>
</svg>
