<svg width="40" height="40" viewBox="0 0 40 40" fill="none" xmlns="http://www.w3.org/2000/svg">
<rect width="40" height="40" rx="20" fill="#E4F2FF"/>
<path d="M23.39 13.21L24.7999 16.03C24.9899 16.42 25.4999 16.79 25.9299 16.87L28.48 17.29C30.11 17.56 30.49 18.74 29.32 19.92L27.3299 21.91C26.9999 22.24 26.81 22.89 26.92 23.36L27.4899 25.82C27.9399 27.76 26.9 28.52 25.19 27.5L22.7999 26.08C22.3699 25.82 21.65 25.82 21.22 26.08L18.8299 27.5C17.1199 28.51 16.0799 27.76 16.5299 25.82L17.1 23.36C17.21 22.9 17.02 22.25 16.69 21.91L14.7 19.92C13.53 18.75 13.91 17.57 15.54 17.29L18.0899 16.87C18.5199 16.8 19.03 16.42 19.22 16.03L20.63 13.21C21.38 11.68 22.62 11.68 23.39 13.21Z" stroke="#0B7DC3" stroke-width="1.5" stroke-linecap="round" stroke-linejoin="round"/>
<path d="M16 13H10" stroke="#0B7DC3" stroke-width="1.5" stroke-linecap="round" stroke-linejoin="round"/>
<path d="M13 27H10" stroke="#0B7DC3" stroke-width="1.5" stroke-linecap="round" stroke-linejoin="round"/>
<path d="M11 20H10" stroke="#0B7DC3" stroke-width="1.5" stroke-linecap="round" stroke-linejoin="round"/>
</svg>
