<svg width="41" height="40" viewBox="0 0 41 40" fill="none" xmlns="http://www.w3.org/2000/svg">
<rect x="0.5" width="40" height="40" rx="20" fill="#C22222" fill-opacity="0.12"/>
<path d="M23.89 13.21L25.2999 16.03C25.4899 16.42 25.9999 16.79 26.4299 16.87L28.98 17.29C30.61 17.56 30.99 18.74 29.82 19.92L27.8299 21.91C27.4999 22.24 27.31 22.89 27.42 23.36L27.9899 25.82C28.4399 27.76 27.4 28.52 25.69 27.5L23.2999 26.08C22.8699 25.82 22.15 25.82 21.72 26.08L19.3299 27.5C17.6199 28.51 16.5799 27.76 17.0299 25.82L17.6 23.36C17.71 22.9 17.52 22.25 17.19 21.91L15.2 19.92C14.03 18.75 14.41 17.57 16.04 17.29L18.5899 16.87C19.0199 16.8 19.53 16.42 19.72 16.03L21.13 13.21C21.88 11.68 23.12 11.68 23.89 13.21Z" stroke="#C22222" stroke-width="1.5" stroke-linecap="round" stroke-linejoin="round"/>
<path d="M16.5 13H10.5" stroke="#C22222" stroke-width="1.5" stroke-linecap="round" stroke-linejoin="round"/>
<path d="M13.5 27H10.5" stroke="#C22222" stroke-width="1.5" stroke-linecap="round" stroke-linejoin="round"/>
<path d="M11.5 20H10.5" stroke="#C22222" stroke-width="1.5" stroke-linecap="round" stroke-linejoin="round"/>
</svg>
