<svg width="58" height="58" viewBox="0 0 58 58" fill="none" xmlns="http://www.w3.org/2000/svg">
<rect width="58" height="58" rx="29" fill="#C22222"/>
<path fill-rule="evenodd" clip-rule="evenodd" d="M37 29C37 29.5523 36.5523 30 36 30L22 30C21.4477 30 21 29.5523 21 29C21 28.4477 21.4477 28 22 28L36 28C36.5523 28 37 28.4477 37 29Z" fill="white"/>
<path fill-rule="evenodd" clip-rule="evenodd" d="M29.7071 36.7071C29.3166 37.0976 28.6834 37.0976 28.2929 36.7071L21.2929 29.7071C20.9024 29.3166 20.9024 28.6834 21.2929 28.2929L28.2929 21.2929C28.6834 20.9024 29.3166 20.9024 29.7071 21.2929C30.0976 21.6834 30.0976 22.3166 29.7071 22.7071L23.4142 29L29.7071 35.2929C30.0976 35.6834 30.0976 36.3166 29.7071 36.7071Z" fill="white"/>
</svg>
