<svg width="45" height="46" viewBox="0 0 45 46" fill="none" xmlns="http://www.w3.org/2000/svg">
<rect x="0.703125" y="1.20312" width="43.5938" height="43.5938" rx="21.7969" fill="#F8FAFB"/>
<rect x="0.703125" y="1.20312" width="43.5938" height="43.5938" rx="21.7969" stroke="#E4F2FF" stroke-width="1.40625"/>
<path fill-rule="evenodd" clip-rule="evenodd" d="M16.3951 29.105C16.0205 28.7304 16.0205 28.123 16.3951 27.7484L27.2484 16.8951C27.623 16.5205 28.2304 16.5205 28.6051 16.8951C28.9797 17.2697 28.9797 17.8771 28.6051 18.2518L17.7518 29.105C17.3772 29.4797 16.7698 29.4797 16.3951 29.105Z" fill="#0B7DC3"/>
<path fill-rule="evenodd" clip-rule="evenodd" d="M16.3949 16.8544C16.7695 16.4797 17.3769 16.4797 17.7516 16.8544L28.6048 27.7076C28.9795 28.0823 28.9795 28.6896 28.6048 29.0643C28.2302 29.4389 27.6228 29.4389 27.2482 29.0643L16.3949 18.211C16.0203 17.8364 16.0203 17.229 16.3949 16.8544Z" fill="#0B7DC3"/>
</svg>
