<svg width="45" height="46" viewBox="0 0 45 46" fill="none" xmlns="http://www.w3.org/2000/svg">
<rect x="0.703125" y="1.20312" width="43.5938" height="43.5938" rx="21.7969" fill="#F8FAFB"/>
<rect x="0.703125" y="1.20312" width="43.5938" height="43.5938" rx="21.7969" stroke="#E4F2FF" stroke-width="1.40625"/>
<path fill-rule="evenodd" clip-rule="evenodd" d="M13.8662 23.0001C13.8662 22.4703 14.2957 22.0408 14.8255 22.0408H30.1743C30.7042 22.0408 31.1337 22.4703 31.1337 23.0001C31.1337 23.5299 30.7042 23.9594 30.1743 23.9594H14.8255C14.2957 23.9594 13.8662 23.5299 13.8662 23.0001Z" fill="#0B7DC3"/>
<path fill-rule="evenodd" clip-rule="evenodd" d="M13.8662 17.2442C13.8662 16.7144 14.2957 16.2849 14.8255 16.2849H30.1743C30.7042 16.2849 31.1337 16.7144 31.1337 17.2442C31.1337 17.774 30.7042 18.2035 30.1743 18.2035H14.8255C14.2957 18.2035 13.8662 17.774 13.8662 17.2442Z" fill="#0B7DC3"/>
<path fill-rule="evenodd" clip-rule="evenodd" d="M13.8662 28.7558C13.8662 28.226 14.2957 27.7965 14.8255 27.7965H30.1743C30.7042 27.7965 31.1337 28.226 31.1337 28.7558C31.1337 29.2856 30.7042 29.7151 30.1743 29.7151H14.8255C14.2957 29.7151 13.8662 29.2856 13.8662 28.7558Z" fill="#0B7DC3"/>
</svg>
